<?xml version="1.0" standalone="no"?>
<!DOCTYPE svg PUBLIC "-//W3C//DTD SVG 20010904//EN"
 "http://www.w3.org/TR/2001/REC-SVG-20010904/DTD/svg10.dtd">
<svg version="1.0" xmlns="http://www.w3.org/2000/svg"
 width="894.000000pt" height="894.000000pt" viewBox="0 0 894.000000 894.000000"
 preserveAspectRatio="xMidYMid meet">
<metadata>
Created by potrace 1.14, written by Peter Selinger 2001-2017
</metadata>
<g transform="translate(0.000000,894.000000) scale(0.100000,-0.100000)"
fill="#000000" stroke="none">
<path d="M7805 8259 c-22 -4 -51 -10 -65 -12 -14 -3 -45 -11 -70 -18 -25 -7
-47 -13 -50 -13 -19 -3 -114 -45 -160 -69 -105 -58 -213 -149 -277 -234 -15
-21 -31 -40 -34 -43 -17 -14 -80 -146 -98 -205 -33 -106 -34 -112 -36 -265 -2
-117 1 -160 17 -220 11 -41 20 -79 22 -85 10 -50 114 -226 157 -267 9 -10 23
-25 31 -36 19 -27 141 -122 155 -122 7 0 13 -4 13 -9 0 -22 238 -114 330 -127
14 -2 48 -8 77 -12 53 -9 284 -8 338 1 17 3 46 8 65 12 52 9 214 66 221 77 3
5 9 9 13 9 27 -5 161 92 241 174 65 67 145 177 145 200 0 8 4 15 9 15 11 0 68
173 77 235 9 64 10 182 2 265 -11 108 -85 301 -139 359 -11 11 -19 24 -19 28
0 16 -166 169 -226 211 -54 36 -161 92 -189 98 -5 1 -29 9 -53 18 -24 9 -46
15 -50 14 -4 -1 -18 2 -32 5 -14 4 -38 10 -55 13 -45 9 -314 12 -360 3z"/>
<path d="M18 7317 c-3 -10 -2 -6589 1 -6639 1 -17 47 -18 814 -18 l814 0 -7
45 c-4 25 -4 45 -1 45 7 0 4 107 -4 127 -2 6 0 13 4 15 5 2 6 24 1 51 -4 26
-4 47 -1 47 7 0 4 107 -4 127 -2 6 0 13 5 15 5 2 6 19 1 41 -5 20 -6 39 -2 41
4 3 6 20 4 38 -2 18 -3 51 -3 73 1 22 1 63 0 90 -1 56 -1 62 0 128 1 26 -1 51
-4 56 -4 5 -2 11 3 13 5 2 6 24 1 51 -4 26 -4 47 -1 47 7 0 4 107 -4 127 -2 6
0 13 4 15 5 2 6 24 1 51 -4 26 -4 47 -1 47 7 0 4 107 -4 127 -2 6 0 13 5 15 5
2 6 19 1 41 -5 20 -6 39 -2 41 4 3 6 20 4 38 -2 18 -3 51 -3 73 1 22 1 58 1
80 0 22 0 58 0 80 0 22 0 58 0 80 0 22 0 58 0 80 0 22 0 63 -1 90 -1 56 -1 62
0 128 1 26 -1 51 -4 56 -4 5 -2 11 3 13 5 2 6 24 1 50 -4 27 -4 48 -1 48 7 0
4 107 -4 127 -2 6 0 13 4 15 5 2 6 24 1 50 -4 27 -4 48 -1 48 7 0 4 107 -4
127 -2 6 0 13 5 15 5 2 6 19 1 41 -5 20 -6 39 -2 41 4 3 6 20 4 38 -2 18 -3
51 -3 73 1 22 1 63 0 90 -1 56 -1 62 0 128 1 26 -1 51 -4 56 -4 5 -2 11 3 13
5 2 6 24 1 51 -4 26 -4 47 -1 47 7 0 4 107 -4 127 -2 6 0 13 4 15 5 2 6 24 1
51 -4 26 -4 47 -1 47 7 0 4 107 -4 127 -2 6 0 13 5 15 5 2 6 19 1 41 -5 20 -5
39 -1 42 4 3 4 20 0 39 -4 20 -4 36 0 38 4 2 5 24 0 51 -4 26 -4 47 -1 47 5 0
6 57 1 70 -1 3 -1 10 0 15 1 6 2 30 1 54 l0 43 94 -141 c52 -79 95 -145 95
-147 0 -3 6 -12 13 -19 30 -35 37 -45 30 -45 -4 0 -3 -4 2 -8 6 -4 34 -43 62
-87 29 -44 56 -84 60 -90 5 -5 24 -35 43 -65 19 -30 38 -56 42 -58 5 -2 8 -7
8 -12 0 -4 67 -109 148 -231 345 -519 407 -615 410 -626 2 -7 7 -13 12 -13 4
0 13 -13 20 -30 7 -16 16 -30 20 -30 3 0 13 -12 21 -27 19 -38 52 -87 62 -91
4 -2 7 -10 7 -18 0 -8 7 -17 15 -20 8 -4 15 -15 15 -25 0 -10 4 -19 8 -19 5 0
15 -12 23 -27 8 -16 16 -30 19 -33 4 -4 75 -111 345 -521 6 -9 35 -53 66 -100
31 -46 133 -201 228 -344 94 -143 176 -267 181 -275 54 -78 280 -422 280 -426
0 -2 7 -12 15 -21 8 -10 61 -90 119 -178 58 -88 108 -165 113 -170 4 -6 15
-22 23 -35 8 -14 38 -60 65 -102 l50 -78 813 0 c766 0 812 1 813 18 1 22 1
6623 0 6639 -1 9 -185 12 -811 12 -445 0 -810 -3 -811 -7 -5 -50 -2 -332 4
-332 5 0 5 -5 1 -12 -12 -19 -11 -108 1 -108 7 0 7 -3 0 -8 -12 -9 -14 -672
-2 -672 5 0 5 -5 1 -12 -12 -19 -11 -108 1 -108 7 0 7 -3 0 -8 -12 -8 -14
-352 -2 -352 5 0 5 -5 1 -12 -12 -19 -11 -108 1 -108 7 0 7 -3 0 -8 -12 -9
-14 -672 -2 -672 5 0 5 -5 1 -12 -12 -19 -11 -108 1 -108 7 0 7 -3 0 -8 -12
-8 -14 -352 -2 -352 5 0 5 -5 1 -12 -12 -19 -11 -108 1 -108 7 0 7 -3 0 -8
-12 -9 -14 -582 -2 -582 5 0 5 -5 1 -12 -10 -16 -11 -148 -1 -148 4 0 3 -8 -2
-18 -6 -11 -6 -24 0 -35 6 -9 6 -17 2 -17 -10 0 -9 -132 1 -149 4 -6 3 -11 -2
-11 -4 0 -7 -27 -6 -60 2 -33 0 -60 -4 -59 -8 0 -135 196 -140 216 -2 7 -7 13
-11 13 -4 0 -16 16 -27 35 -10 19 -21 35 -25 35 -4 0 -9 8 -13 18 -5 17 -26
52 -36 62 -3 3 -30 43 -60 90 -30 47 -57 87 -60 90 -3 3 -11 17 -19 33 -8 15
-18 27 -23 27 -4 0 -8 4 -8 9 0 6 -50 84 -110 176 -61 91 -110 170 -110 175 0
6 -4 10 -9 10 -5 0 -16 15 -25 33 -9 17 -25 43 -36 57 -10 14 -85 126 -166
250 -81 124 -178 271 -216 328 -37 56 -68 107 -68 112 0 4 -3 10 -7 12 -5 2
-29 36 -55 76 -27 39 -69 105 -95 145 -27 39 -51 74 -55 75 -5 2 -8 7 -8 12 0
4 -48 82 -107 172 -60 90 -112 171 -118 180 -11 17 -205 310 -224 337 -55 82
-171 262 -171 266 0 3 -8 14 -18 25 -10 11 -25 33 -33 48 -8 15 -21 35 -30 45
-9 9 -22 30 -30 45 -8 15 -22 36 -31 46 -10 11 -18 26 -18 33 0 7 -3 13 -8 13
-4 0 -16 17 -27 37 -11 20 -25 41 -30 47 -6 6 -30 43 -54 81 -24 39 -47 72
-51 75 -3 3 -9 12 -13 20 -3 8 -61 96 -127 195 -66 99 -125 189 -129 200 -5
12 -16 27 -25 34 -9 7 -16 19 -16 26 0 8 -3 15 -7 17 -5 2 -20 22 -36 45 l-27
43 -809 -1 c-623 0 -810 -3 -813 -12z"/>
<path d="M7192 5962 c-36 -4 -35 1 -31 -132 1 -19 1 -42 0 -50 0 -8 0 -40 0
-70 1 -30 1 -61 0 -67 -2 -26 -2 -42 -2 -263 0 -124 0 -232 0 -240 0 -26 0
-464 0 -480 0 -8 0 -64 0 -125 0 -60 1 -126 2 -145 0 -19 1 -41 0 -47 -1 -7
-1 -20 -1 -28 0 -8 0 -22 0 -30 0 -8 0 -21 -1 -27 -1 -7 -1 -29 0 -48 1 -19 1
-43 1 -52 0 -10 0 -26 0 -35 0 -10 0 -34 1 -53 1 -19 1 -41 0 -47 -1 -7 -1
-20 -1 -28 0 -8 0 -22 0 -30 0 -8 0 -21 -1 -27 -1 -7 0 -29 0 -48 2 -42 4
-310 2 -327 -1 -7 -1 -19 -2 -25 0 -7 0 -150 0 -318 0 -168 0 -312 0 -320 0
-8 0 -152 0 -320 0 -168 0 -312 0 -320 0 -15 0 -611 0 -640 0 -8 0 -116 0
-240 0 -124 0 -234 0 -245 0 -11 0 -96 0 -190 -1 -93 -1 -176 0 -182 0 -7 1
-33 1 -58 l2 -45 811 0 812 0 0 2650 0 2650 -45 0 c-25 1 -116 2 -203 3 -86 1
-157 -2 -157 -6 0 -5 -5 -5 -11 -2 -14 10 -149 12 -149 3 0 -4 -6 -5 -14 -2
-22 8 -466 10 -466 2 0 -4 -7 -5 -15 -1 -24 9 -465 9 -465 0 0 -4 -8 -4 -17 0
-10 5 -33 7 -51 5z"/>
</g>
</svg>
