<svg width="187" height="90" viewBox="0 0 187 90" fill="none" xmlns="http://www.w3.org/2000/svg">
<circle cx="45" cy="45" r="45" fill="url(#paint0_linear_2_7)"/>
<path d="M38.04 30.304V50.464C38.04 52.48 38.536 54.032 39.528 55.12C40.52 56.208 41.976 56.752 43.896 56.752C45.816 56.752 47.288 56.208 48.312 55.12C49.336 54.032 49.848 52.48 49.848 50.464V30.304H58.056V50.416C58.056 53.424 57.416 55.968 56.136 58.048C54.856 60.128 53.128 61.696 50.952 62.752C48.808 63.808 46.408 64.336 43.752 64.336C41.096 64.336 38.712 63.824 36.6 62.8C34.52 61.744 32.872 60.176 31.656 58.096C30.44 55.984 29.832 53.424 29.832 50.416V30.304H38.04Z" fill="white"/>
<path d="M93.8197 46.72C95.7717 47.136 97.3398 48.112 98.5238 49.648C99.7078 51.152 100.3 52.88 100.3 54.832C100.3 57.648 99.3077 59.888 97.3237 61.552C95.3717 63.184 92.6357 64 89.1157 64H73.4197V30.304H88.5877C92.0117 30.304 94.6837 31.088 96.6037 32.656C98.5557 34.224 99.5317 36.352 99.5317 39.04C99.5317 41.024 99.0037 42.672 97.9477 43.984C96.9237 45.296 95.5477 46.208 93.8197 46.72ZM81.6277 43.936H87.0037C88.3477 43.936 89.3717 43.648 90.0757 43.072C90.8117 42.464 91.1797 41.584 91.1797 40.432C91.1797 39.28 90.8117 38.4 90.0757 37.792C89.3717 37.184 88.3477 36.88 87.0037 36.88H81.6277V43.936ZM87.6757 57.376C89.0517 57.376 90.1077 57.072 90.8437 56.464C91.6117 55.824 91.9957 54.912 91.9957 53.728C91.9957 52.544 91.5957 51.616 90.7957 50.944C90.0277 50.272 88.9557 49.936 87.5797 49.936H81.6277V57.376H87.6757ZM113.268 28.48V64H105.06V28.48H113.268ZM131.409 64.384C128.785 64.384 126.417 63.824 124.305 62.704C122.225 61.584 120.577 59.984 119.361 57.904C118.177 55.824 117.585 53.392 117.585 50.608C117.585 47.856 118.193 45.44 119.409 43.36C120.625 41.248 122.289 39.632 124.401 38.512C126.513 37.392 128.881 36.832 131.505 36.832C134.129 36.832 136.497 37.392 138.609 38.512C140.721 39.632 142.385 41.248 143.601 43.36C144.817 45.44 145.425 47.856 145.425 50.608C145.425 53.36 144.801 55.792 143.553 57.904C142.337 59.984 140.657 61.584 138.513 62.704C136.401 63.824 134.033 64.384 131.409 64.384ZM131.409 57.28C132.977 57.28 134.305 56.704 135.393 55.552C136.513 54.4 137.073 52.752 137.073 50.608C137.073 48.464 136.529 46.816 135.441 45.664C134.385 44.512 133.073 43.936 131.505 43.936C129.905 43.936 128.577 44.512 127.521 45.664C126.465 46.784 125.937 48.432 125.937 50.608C125.937 52.752 126.449 54.4 127.473 55.552C128.529 56.704 129.841 57.28 131.409 57.28ZM159.955 36.832C161.843 36.832 163.491 37.216 164.899 37.984C166.339 38.752 167.443 39.76 168.211 41.008V37.216H176.419V63.952C176.419 66.416 175.923 68.64 174.931 70.624C173.971 72.64 172.483 74.24 170.467 75.424C168.483 76.608 166.003 77.2 163.027 77.2C159.059 77.2 155.843 76.256 153.379 74.368C150.915 72.512 149.507 69.984 149.155 66.784H157.267C157.523 67.808 158.131 68.608 159.091 69.184C160.051 69.792 161.235 70.096 162.643 70.096C164.339 70.096 165.683 69.6 166.675 68.608C167.699 67.648 168.211 66.096 168.211 63.952V60.16C167.411 61.408 166.307 62.432 164.899 63.232C163.491 64 161.843 64.384 159.955 64.384C157.747 64.384 155.747 63.824 153.955 62.704C152.163 61.552 150.739 59.936 149.683 57.856C148.659 55.744 148.147 53.312 148.147 50.56C148.147 47.808 148.659 45.392 149.683 43.312C150.739 41.232 152.163 39.632 153.955 38.512C155.747 37.392 157.747 36.832 159.955 36.832ZM168.211 50.608C168.211 48.56 167.635 46.944 166.483 45.76C165.363 44.576 163.987 43.984 162.355 43.984C160.723 43.984 159.331 44.576 158.179 45.76C157.059 46.912 156.499 48.512 156.499 50.56C156.499 52.608 157.059 54.24 158.179 55.456C159.331 56.64 160.723 57.232 162.355 57.232C163.987 57.232 165.363 56.64 166.483 55.456C167.635 54.272 168.211 52.656 168.211 50.608Z" fill="#3544B1"/>
<defs>
<linearGradient id="paint0_linear_2_7" x1="45" y1="45" x2="90" y2="45" gradientUnits="userSpaceOnUse">
<stop stop-color="#3544B1"/>
<stop offset="0.505208" stop-color="#3544B1"/>
<stop offset="0.505308" stop-color="#3544B1" stop-opacity="0"/>
<stop offset="1" stop-color="#3544B1" stop-opacity="0"/>
</linearGradient>
</defs>
</svg>
